<svg id="Layer_1" data-name="Layer 1" xmlns="http://www.w3.org/2000/svg" viewBox="0 0 133 431"><defs><style>.cls-1{fill:#fae102;}.cls-2{fill:#fff;}</style></defs><rect class="cls-1" x="-135.96" y="187.12" width="401.28" height="56.06" rx="14.2" transform="translate(-150.47 279.84) rotate(-90)"/><path class="cls-2" d="M80.11,54.76a12.3,12.3,0,0,1,3,8.34,13.53,13.53,0,0,1-2.16,7.39A15.2,15.2,0,0,1,74.38,76a25.42,25.42,0,0,1-10.91,2.09,39.06,39.06,0,0,1-9.42-1.16A28.12,28.12,0,0,1,46,73.65l4.64-9.59a20.85,20.85,0,0,0,6,2.77,23.36,23.36,0,0,0,6.53,1,9.7,9.7,0,0,0,5.21-1.22,3.87,3.87,0,0,0,1.93-3.47c0-2.92-2.3-4.38-6.88-4.38H58v-8l8-8.69H48.29V32.15H80.85v8l-9.33,10A15,15,0,0,1,80.11,54.76Z"/></svg>