<svg id="Layer_1" data-name="Layer 1" xmlns="http://www.w3.org/2000/svg" viewBox="0 0 133 431"><defs><style>.cls-1{fill:#38beef;}.cls-2{fill:#fff;}</style></defs><rect class="cls-1" x="-137.06" y="186.67" width="400.39" height="56.06" rx="14.2" transform="translate(-151.57 277.83) rotate(-90)"/><path class="cls-2" d="M77.12,51.52a12.81,12.81,0,0,1,4.54,10.29A14.39,14.39,0,0,1,79.5,69.5a14.85,14.85,0,0,1-6.56,5.6A25.41,25.41,0,0,1,62,77.19,39.08,39.08,0,0,1,52.61,76a27.08,27.08,0,0,1-8-3.28l4.57-9.59a21.75,21.75,0,0,0,5.95,2.77,22.89,22.89,0,0,0,6.53,1,9.59,9.59,0,0,0,5.24-1.25,4,4,0,0,0,2-3.51,3.76,3.76,0,0,0-1.93-3.41Q65,57.57,60.1,57.56H47.88l2.25-26.31h28.7v9.84H60.68l-.58,6.57h3Q72.58,47.66,77.12,51.52Z"/></svg>