<svg id="Layer_1" data-name="Layer 1" xmlns="http://www.w3.org/2000/svg" xmlns:xlink="http://www.w3.org/1999/xlink" viewBox="0 0 442 431"><defs><style>.cls-1{fill:url(#linear-gradient);}.cls-2{fill:url(#linear-gradient-2);}.cls-3{fill:url(#linear-gradient-3);}.cls-4{fill:url(#linear-gradient-4);}.cls-5{fill:url(#linear-gradient-5);}.cls-6{fill:url(#linear-gradient-6);}</style><linearGradient id="linear-gradient" x1="8002.8" y1="330.92" x2="7897.49" y2="226.12" gradientTransform="matrix(-1, 0, 0, 1, 8050.13, 0)" gradientUnits="userSpaceOnUse"><stop offset="0" stop-color="#13b6db"/><stop offset="0.31" stop-color="#26a4d4"/><stop offset="0.71" stop-color="#3893cd"/><stop offset="1" stop-color="#3e8dcb"/></linearGradient><linearGradient id="linear-gradient-2" x1="7789.29" y1="406.81" x2="7789.78" y2="125.52" gradientTransform="matrix(-1, 0, 0, 1, 8050.13, 0)" gradientUnits="userSpaceOnUse"><stop offset="0" stop-color="#3e8dcb"/><stop offset="1" stop-color="#13b6db"/></linearGradient><linearGradient id="linear-gradient-3" x1="7980.94" y1="131.34" x2="7809.54" y2="123.51" gradientTransform="matrix(-1, 0, 0, 1, 8050.13, 0)" gradientUnits="userSpaceOnUse"><stop offset="0" stop-color="#13b6db"/><stop offset="0.1" stop-color="#1baed8"/><stop offset="0.39" stop-color="#2f9cd1"/><stop offset="0.69" stop-color="#3a91cc"/><stop offset="1" stop-color="#3e8dcb"/></linearGradient><linearGradient id="linear-gradient-4" x1="404.61" y1="368.93" x2="352.04" y2="316.62" gradientUnits="userSpaceOnUse"><stop offset="0" stop-color="#b4dde7"/><stop offset="0.11" stop-color="#a9d9e1"/><stop offset="0.47" stop-color="#8ccdd1"/><stop offset="0.78" stop-color="#79c6c7"/><stop offset="1" stop-color="#73c3c4"/></linearGradient><linearGradient id="linear-gradient-5" x1="298.02" y1="406.81" x2="298.27" y2="266.39" gradientUnits="userSpaceOnUse"><stop offset="0" stop-color="#73c3c4"/><stop offset="0.23" stop-color="#83c9cd"/><stop offset="1" stop-color="#b4dde7"/></linearGradient><linearGradient id="linear-gradient-6" x1="393.69" y1="269.3" x2="308.13" y2="265.39" gradientUnits="userSpaceOnUse"><stop offset="0" stop-color="#b4dde7"/><stop offset="0.02" stop-color="#b1dce5"/><stop offset="0.26" stop-color="#96d1d7"/><stop offset="0.5" stop-color="#82c9cc"/><stop offset="0.75" stop-color="#77c5c6"/><stop offset="1" stop-color="#73c3c4"/></linearGradient></defs><polygon class="cls-1" points="186.43 407.2 37.87 321.43 37.87 125.64 186.44 211.41 186.43 407.2"/><polygon class="cls-2" points="186.31 406.94 334.87 321.17 334.88 125.38 186.31 211.16 186.31 406.94"/><polygon class="cls-3" points="334.88 125.94 186.31 40.27 37.63 126.21 186.31 211.71 334.88 125.94"/><polygon class="cls-4" points="335.17 407 409.32 364.19 409.33 266.45 335.17 309.27 335.17 407"/><polygon class="cls-5" points="335.23 406.87 261.07 364.06 261.07 266.33 335.23 309.14 335.23 406.87"/><polygon class="cls-6" points="261.07 266.61 335.23 223.84 409.45 266.74 335.23 309.42 261.07 266.61"/></svg>