<svg id="Layer_1" data-name="Layer 1" xmlns="http://www.w3.org/2000/svg" viewBox="0 0 133 431"><defs><style>.cls-1{fill:#f5a017;}.cls-2{fill:#fff;}</style></defs><rect class="cls-1" x="-134.43" y="187.72" width="402.49" height="56.06" rx="14.2" transform="translate(-148.94 282.57) rotate(-90)"/><path class="cls-2" d="M85.5,69.19v10.1H50.44v-8L67.3,55.55a16,16,0,0,0,3.28-4,7.28,7.28,0,0,0,.83-3.31,4.19,4.19,0,0,0-1.48-3.41,6.63,6.63,0,0,0-4.31-1.22A9.69,9.69,0,0,0,61,44.77,9.32,9.32,0,0,0,57.58,48l-9.46-5.28a18.59,18.59,0,0,1,7.4-6.89,23.89,23.89,0,0,1,11.26-2.51A23.17,23.17,0,0,1,75.89,35a14.09,14.09,0,0,1,6.17,4.79,12.18,12.18,0,0,1,2.22,7.24A15.66,15.66,0,0,1,82.71,54a26.72,26.72,0,0,1-6.08,7.36l-8.5,7.85Z"/></svg>